<svg xmlns="http://www.w3.org/2000/svg" viewBox="0 0 1200 630" width="1200" height="630" role="img" aria-label="Forge Studio, the forge is not idle">
<defs>
<linearGradient id="plateog" x1="0" y1="0" x2="0" y2="1">
  <stop offset="0" stop-color="#130d0a"/><stop offset="1" stop-color="#0a0706"/>
</linearGradient>
<linearGradient id="irongog" x1="0" y1="0" x2="0" y2="1">
  <stop offset="0" stop-color="#241a13"/><stop offset="1" stop-color="#0c0807"/>
</linearGradient>
<linearGradient id="plategog" x1="0" y1="0" x2="0" y2="1">
  <stop offset="0" stop-color="#f2ead9"/><stop offset=".52" stop-color="#e8ddcf"/>
  <stop offset="1" stop-color="#cbb287"/>
</linearGradient>
<linearGradient id="bonegog" x1="0" y1="0" x2="0" y2="1">
  <stop offset="0" stop-color="#f6efe3"/><stop offset=".55" stop-color="#e8ddcf"/>
  <stop offset="1" stop-color="#c9b48f"/>
</linearGradient>
<linearGradient id="wordgog" x1="0" y1="0" x2="0" y2="1">
  <stop offset="0" stop-color="#f6efe3"/><stop offset=".6" stop-color="#e8ddcf"/>
  <stop offset="1" stop-color="#cab48e"/>
</linearGradient>
<linearGradient id="brassgog" x1="0" y1="0" x2="0" y2="1">
  <stop offset="0" stop-color="#e6c76a"/><stop offset="1" stop-color="#8a6c14"/>
</linearGradient>
<radialGradient id="coreog" cx=".5" cy=".5" r=".5">
  <stop offset="0" stop-color="#e8843c" stop-opacity=".28"/>
  <stop offset=".62" stop-color="#c9a227" stop-opacity=".10"/>
  <stop offset="1" stop-color="#c9a227" stop-opacity="0"/>
</radialGradient>
<radialGradient id="heatog" cx=".5" cy=".44" r=".64">
  <stop offset="0" stop-color="#e8843c" stop-opacity=".14"/>
  <stop offset=".55" stop-color="#7a1f1f" stop-opacity=".11"/>
  <stop offset="1" stop-color="#7a1f1f" stop-opacity="0"/>
</radialGradient>
<filter id="shog" x="-20%" y="-20%" width="140%" height="150%">
  <feDropShadow dx="2.4" dy="3.4" stdDeviation="1.4" flood-color="#000" flood-opacity=".55"/>
</filter>
</defs>
<rect width="1200" height="630" fill="url(#plateog)"/>
<ellipse cx="600" cy="330" rx="650" ry="340" fill="url(#heatog)"/>
<rect x="32" y="32" width="1136" height="566" rx="10" fill="none" stroke="#c9a227" stroke-opacity=".34" stroke-width="1.5"/>
<g>
<ellipse cx="600" cy="214" rx="73.44" ry="77.52" fill="url(#coreog)"/>
<path d="M 553.08 146.68 L 646.92 146.68 L 667.32 167.08 L 667.32 260.92 L 646.92 281.32 L 553.08 281.32 L 532.68 260.92 L 532.68 167.08 Z" fill="url(#plategog)" stroke="#c9a227" stroke-width="2.86" stroke-linejoin="round"/>
<path d="M 558.71 154.76 L 641.29 154.76 L 659.24 172.71 L 659.24 255.29 L 641.29 273.24 L 558.71 273.24 L 540.76 255.29 L 540.76 172.71 Z" fill="none" stroke="#0a0706" stroke-opacity=".30" stroke-width="1.12" stroke-linejoin="round"/>
<g transform="translate(0 -1.73)" opacity=".5"><path transform="translate(557.5 266.02) scale(0.14 -0.14)" d="M268.7828369140625 700V0H118.7864990234375V700ZM495.7828369140625 366.0711669921875V323.9288330078125H265.7828369140625V366.0711669921875ZM544.85400390625 700V656.857666015625H265.7828369140625V700ZM495.7828369140625 325.9288330078125V229.572998046875H485.7828369140625V238.5018310546875Q485.7828369140625 274.89398193359375 461.7654113769531 299.10784912109375Q437.74798583984375 323.32171630859375 401.3558349609375 323.9288330078125V325.9288330078125ZM495.7828369140625 460.427001953125V364.0711669921875H401.3558349609375V366.0711669921875Q437.74798583984375 367.0711669921875 462.0689697265625 391.5885925292969Q486.38995361328125 416.10601806640625 485.7828369140625 452.4981689453125V460.427001953125ZM544.85400390625 659.857666015625V548.5381469726562H534.85400390625V559.288330078125Q534.85400390625 603.572998046875 508.5152282714844 630.21533203125Q482.17645263671875 656.857666015625 437.28466796875 657.4647827148438V659.857666015625ZM544.85400390625 718V689L422.85400390625 700Q444.85400390625 700 469.35400390625 703.0Q493.85400390625 706 514.85400390625 710.0Q535.85400390625 714 544.85400390625 718ZM121.7864990234375 73V0H41.7864990234375V10Q41.7864990234375 10 48.2864990234375 10.0Q54.7864990234375 10 54.7864990234375 10Q80.7864990234375 10 99.2864990234375 28.5Q117.7864990234375 47 118.7864990234375 73ZM121.7864990234375 627H118.7864990234375Q118.17938232421875 653 99.35962009429932 671.5Q80.53985786437988 690 54.7864990234375 690Q54.7864990234375 690 48.482940673828125 690.0Q42.17938232421875 690 42.17938232421875 690L41.7864990234375 700H121.7864990234375ZM265.7828369140625 73H268.7828369140625Q269.7828369140625 47 288.2828369140625 28.5Q306.7828369140625 10 332.7828369140625 10Q332.7828369140625 10 338.7828369140625 10.0Q344.7828369140625 10 345.7828369140625 10V0H265.7828369140625Z" fill="#0a0706"/></g>
<g transform="translate(0 1.73)" opacity=".6"><path transform="translate(557.5 266.02) scale(0.14 -0.14)" d="M268.7828369140625 700V0H118.7864990234375V700ZM495.7828369140625 366.0711669921875V323.9288330078125H265.7828369140625V366.0711669921875ZM544.85400390625 700V656.857666015625H265.7828369140625V700ZM495.7828369140625 325.9288330078125V229.572998046875H485.7828369140625V238.5018310546875Q485.7828369140625 274.89398193359375 461.7654113769531 299.10784912109375Q437.74798583984375 323.32171630859375 401.3558349609375 323.9288330078125V325.9288330078125ZM495.7828369140625 460.427001953125V364.0711669921875H401.3558349609375V366.0711669921875Q437.74798583984375 367.0711669921875 462.0689697265625 391.5885925292969Q486.38995361328125 416.10601806640625 485.7828369140625 452.4981689453125V460.427001953125ZM544.85400390625 659.857666015625V548.5381469726562H534.85400390625V559.288330078125Q534.85400390625 603.572998046875 508.5152282714844 630.21533203125Q482.17645263671875 656.857666015625 437.28466796875 657.4647827148438V659.857666015625ZM544.85400390625 718V689L422.85400390625 700Q444.85400390625 700 469.35400390625 703.0Q493.85400390625 706 514.85400390625 710.0Q535.85400390625 714 544.85400390625 718ZM121.7864990234375 73V0H41.7864990234375V10Q41.7864990234375 10 48.2864990234375 10.0Q54.7864990234375 10 54.7864990234375 10Q80.7864990234375 10 99.2864990234375 28.5Q117.7864990234375 47 118.7864990234375 73ZM121.7864990234375 627H118.7864990234375Q118.17938232421875 653 99.35962009429932 671.5Q80.53985786437988 690 54.7864990234375 690Q54.7864990234375 690 48.482940673828125 690.0Q42.17938232421875 690 42.17938232421875 690L41.7864990234375 700H121.7864990234375ZM265.7828369140625 73H268.7828369140625Q269.7828369140625 47 288.2828369140625 28.5Q306.7828369140625 10 332.7828369140625 10Q332.7828369140625 10 338.7828369140625 10.0Q344.7828369140625 10 345.7828369140625 10V0H265.7828369140625Z" fill="#e8ddcf"/></g>
<g fill="#191009"><path transform="translate(557.5 266.02) scale(0.14 -0.14)" d="M268.7828369140625 700V0H118.7864990234375V700ZM495.7828369140625 366.0711669921875V323.9288330078125H265.7828369140625V366.0711669921875ZM544.85400390625 700V656.857666015625H265.7828369140625V700ZM495.7828369140625 325.9288330078125V229.572998046875H485.7828369140625V238.5018310546875Q485.7828369140625 274.89398193359375 461.7654113769531 299.10784912109375Q437.74798583984375 323.32171630859375 401.3558349609375 323.9288330078125V325.9288330078125ZM495.7828369140625 460.427001953125V364.0711669921875H401.3558349609375V366.0711669921875Q437.74798583984375 367.0711669921875 462.0689697265625 391.5885925292969Q486.38995361328125 416.10601806640625 485.7828369140625 452.4981689453125V460.427001953125ZM544.85400390625 659.857666015625V548.5381469726562H534.85400390625V559.288330078125Q534.85400390625 603.572998046875 508.5152282714844 630.21533203125Q482.17645263671875 656.857666015625 437.28466796875 657.4647827148438V659.857666015625ZM544.85400390625 718V689L422.85400390625 700Q444.85400390625 700 469.35400390625 703.0Q493.85400390625 706 514.85400390625 710.0Q535.85400390625 714 544.85400390625 718ZM121.7864990234375 73V0H41.7864990234375V10Q41.7864990234375 10 48.2864990234375 10.0Q54.7864990234375 10 54.7864990234375 10Q80.7864990234375 10 99.2864990234375 28.5Q117.7864990234375 47 118.7864990234375 73ZM121.7864990234375 627H118.7864990234375Q118.17938232421875 653 99.35962009429932 671.5Q80.53985786437988 690 54.7864990234375 690Q54.7864990234375 690 48.482940673828125 690.0Q42.17938232421875 690 42.17938232421875 690L41.7864990234375 700H121.7864990234375ZM265.7828369140625 73H268.7828369140625Q269.7828369140625 47 288.2828369140625 28.5Q306.7828369140625 10 332.7828369140625 10Q332.7828369140625 10 338.7828369140625 10.0Q344.7828369140625 10 345.7828369140625 10V0H265.7828369140625Z"/></g>
<circle cx="653.04" cy="155.86" r="2.65" fill="#0a0706" fill-opacity=".55"/><circle cx="653.04" cy="272.14" r="2.65" fill="#0a0706" fill-opacity=".55"/><circle cx="546.96" cy="272.14" r="2.65" fill="#0a0706" fill-opacity=".55"/><circle cx="546.96" cy="155.86" r="2.65" fill="#0a0706" fill-opacity=".55"/>
</g>
<g fill="url(#wordgog)" filter="url(#shog)"><path transform="translate(190 436) scale(0.1 -0.1)" d="M268.7828369140625 700V0H118.7864990234375V700ZM495.7828369140625 366.0711669921875V323.9288330078125H265.7828369140625V366.0711669921875ZM544.85400390625 700V656.857666015625H265.7828369140625V700ZM495.7828369140625 325.9288330078125V229.572998046875H485.7828369140625V238.5018310546875Q485.7828369140625 274.89398193359375 461.7654113769531 299.10784912109375Q437.74798583984375 323.32171630859375 401.3558349609375 323.9288330078125V325.9288330078125ZM495.7828369140625 460.427001953125V364.0711669921875H401.3558349609375V366.0711669921875Q437.74798583984375 367.0711669921875 462.0689697265625 391.5885925292969Q486.38995361328125 416.10601806640625 485.7828369140625 452.4981689453125V460.427001953125ZM544.85400390625 659.857666015625V548.5381469726562H534.85400390625V559.288330078125Q534.85400390625 603.572998046875 508.5152282714844 630.21533203125Q482.17645263671875 656.857666015625 437.28466796875 657.4647827148438V659.857666015625ZM544.85400390625 718V689L422.85400390625 700Q444.85400390625 700 469.35400390625 703.0Q493.85400390625 706 514.85400390625 710.0Q535.85400390625 714 544.85400390625 718ZM121.7864990234375 73V0H41.7864990234375V10Q41.7864990234375 10 48.2864990234375 10.0Q54.7864990234375 10 54.7864990234375 10Q80.7864990234375 10 99.2864990234375 28.5Q117.7864990234375 47 118.7864990234375 73ZM121.7864990234375 627H118.7864990234375Q118.17938232421875 653 99.35962009429932 671.5Q80.53985786437988 690 54.7864990234375 690Q54.7864990234375 690 48.482940673828125 690.0Q42.17938232421875 690 42.17938232421875 690L41.7864990234375 700H121.7864990234375ZM265.7828369140625 73H268.7828369140625Q269.7828369140625 47 288.2828369140625 28.5Q306.7828369140625 10 332.7828369140625 10Q332.7828369140625 10 338.7828369140625 10.0Q344.7828369140625 10 345.7828369140625 10V0H265.7828369140625Z"/>
<path transform="translate(250.56 436) scale(0.1 -0.1)" d="M441.74945068359375 714Q562.1060180664062 714 650.6949768066406 669.7142333984375Q739.283935546875 625.428466796875 787.5159606933594 544.0355834960938Q835.7479858398438 462.6427001953125 835.7479858398438 350Q835.7479858398438 237.96441650390625 787.5159606933594 156.26797485351562Q739.283935546875 74.571533203125 650.6949768066406 30.2857666015625Q562.1060180664062 -14 441.74945068359375 -14Q321.7857666015625 -14 233.5003662109375 30.2857666015625Q145.2149658203125 74.571533203125 96.98294067382812 155.96441650390625Q48.75091552734375 237.3572998046875 48.75091552734375 350Q48.75091552734375 462.03558349609375 96.98294067382812 543.7320251464844Q145.2149658203125 625.428466796875 233.5003662109375 669.7142333984375Q321.7857666015625 714 441.74945068359375 714ZM441.74945068359375 28.142333984375Q512.7857666015625 28.142333984375 564.1434326171875 67.41030883789062Q615.5010986328125 106.67828369140625 643.4121398925781 178.6427001953125Q671.3231811523438 250.60711669921875 671.3231811523438 350Q671.3231811523438 449.39288330078125 643.4121398925781 521.3572998046875Q615.5010986328125 593.3217163085938 564.1434326171875 632.5896911621094Q512.7857666015625 671.857666015625 441.74945068359375 671.857666015625Q371.713134765625 671.857666015625 320.35546875 632.5896911621094Q268.997802734375 593.3217163085938 241.08676147460938 521.3572998046875Q213.17572021484375 449.39288330078125 213.17572021484375 350Q213.17572021484375 250.60711669921875 241.08676147460938 178.6427001953125Q268.997802734375 106.67828369140625 320.35546875 67.41030883789062Q371.713134765625 28.142333984375 441.74945068359375 28.142333984375Z"/>
<path transform="translate(339.32 436) scale(0.1 -0.1)" d="M259.425537109375 700H388.283203125Q433.283203125 700 476.1579284667969 690.0355834960938Q519.0326538085938 680.0711669921875 552.5322875976562 657.9996337890625Q586.0319213867188 635.9281005859375 605.9066467285156 599.9103088378906Q625.7813720703125 563.8925170898438 625.7813720703125 511.39288330078125Q625.7813720703125 469.46405029296875 608.4418640136719 427.5889587402344Q591.1023559570312 385.7138671875 555.0308227539062 356.39251708984375Q518.9592895507812 327.0711669921875 461.8525390625 321Q494.03045654296875 310.96441650390625 520.708740234375 284.9110412597656Q547.3870239257812 258.857666015625 564.2083740234375 232.7864990234375Q565.422607421875 230.96514892578125 575.5834655761719 214.80429077148438Q585.7443237304688 198.6434326171875 601.3873901367188 175.19680786132812Q617.0304565429688 151.75018310546875 633.7806396484375 127.7857666015625Q650.5308227539062 103.82135009765625 664.9237060546875 86Q686.7450561523438 58.53594970703125 704.9237060546875 42.14306640625Q723.1023559570312 25.75018310546875 742.9596557617188 18.17864990234375Q762.8169555664062 10.60711669921875 788.7813720703125 10V0H691.283203125Q636.7835693359375 0 592.6590270996094 9.75018310546875Q548.5344848632812 19.5003662109375 514.9099426269531 42.125274658203125Q481.285400390625 64.75018310546875 456.17864990234375 103.7850341796875Q448.32171630859375 116.28466796875 438.7679748535156 134.67755126953125Q429.2142333984375 153.0704345703125 418.9103088378906 173.80282592773438Q408.60638427734375 194.53521728515625 399.4095764160156 214.16049194335938Q390.2127685546875 233.7857666015625 383.283935546875 249.8572998046875Q376.3551025390625 265.9288330078125 373.140869140625 275Q359.60491943359375 306.67828369140625 342.0689697265625 322.82135009765625Q324.53302001953125 338.96441650390625 305.425537109375 342V352Q307.85400390625 352 316.9792785644531 351.8035583496094Q326.10455322265625 351.60711669921875 335.96221923828125 352Q363.17645263671875 352.39288330078125 388.71240234375 363.03558349609375Q414.24835205078125 373.67828369140625 433.96295166015625 398.7138671875Q453.67755126953125 423.74945068359375 462.2135009765625 467.53521728515625Q463.999267578125 476.7138671875 465.39215087890625 488.96405029296875Q466.7850341796875 501.2142333984375 465.7850341796875 516Q462.96368408203125 587.6427001953125 430.07080078125 621.1608581542969Q397.17791748046875 654.6790161132812 347.856201171875 655.857666015625Q333.81988525390625 656.6434326171875 317.3728942871094 656.4469909667969Q300.9259033203125 656.2505493164062 287.60418701171875 656.2505493164062Q274.282470703125 656.2505493164062 269.425537109375 656.2505493164062Q269.425537109375 656.6434326171875 266.925537109375 667.4825744628906Q264.425537109375 678.3217163085938 261.925537109375 689.1608581542969Q259.425537109375 700 259.425537109375 700ZM272.425537109375 700V0H121.82208251953125V700ZM124.82208251953125 73V0H44.82208251953125V10Q46.03631591796875 10 51.625640869140625 10.0Q57.2149658203125 10 57.82208251953125 10Q83.82208251953125 10 102.32208251953125 28.5Q120.82208251953125 47 121.82208251953125 73ZM124.82208251953125 627H121.82208251953125Q120.82208251953125 653 102.32208251953125 671.5Q83.82208251953125 690 57.82208251953125 690Q57.2149658203125 690 51.625640869140625 690.0Q46.03631591796875 690 44.82208251953125 690V700H124.82208251953125ZM269.425537109375 73H272.425537109375Q272.425537109375 47 291.425537109375 28.5Q310.425537109375 10 336.425537109375 10Q337.6397705078125 10 342.7290954589844 10.0Q347.81842041015625 10 348.425537109375 10V0H269.425537109375Z"/>
<path transform="translate(414.92 436) scale(0.1 -0.1)" d="M754.5337524414062 280V115Q730.9266357421875 85 683.427001953125 55.0Q635.9273681640625 25 569.7135009765625 5.5Q503.4996337890625 -14 422.6427001953125 -14Q309.3572998046875 -13.60711669921875 224.41104125976562 30.67864990234375Q139.46478271484375 74.96441650390625 92.1434326171875 156.76797485351562Q44.82208251953125 238.571533203125 44.82208251953125 351.2142333984375Q44.82208251953125 462.6427001953125 91.53631591796875 544.0355834960938Q138.25054931640625 625.428466796875 224.714599609375 669.7142333984375Q311.17864990234375 714 428.7138671875 714Q483.7138671875 714 535.9099426269531 706.5177917480469Q588.1060180664062 699.0355834960938 632.1056518554688 686.8747253417969Q676.1052856445312 674.7138671875 705.1052856445312 659.3565673828125L706.8917846679688 488.000732421875H697.8917846679688Q679.2490844726562 556.3217163085938 643.2312927246094 596.4288330078125Q607.2135009765625 636.5359497070312 559.7668762207031 654.1968078613281Q512.3202514648438 671.857666015625 459.0697021484375 671.857666015625Q377.4981689453125 671.857666015625 321.39068603515625 632.2861328125Q265.283203125 592.714599609375 236.568603515625 519.8395080566406Q207.85400390625 446.96441650390625 207.85400390625 345.14306640625Q207.85400390625 248.7857666015625 234.44369506835938 177.428466796875Q261.03338623046875 106.0711669921875 311.9803771972656 67.30319213867188Q362.9273681640625 28.53521728515625 435.999267578125 28.142333984375Q473.32098388671875 28.142333984375 507.4462585449219 39.553009033203125Q541.571533203125 50.96368408203125 567.5541076660156 73.19570922851562Q593.5366821289062 95.427734375 604.5374145507812 127.28466796875L605.5374145507812 280Q605.5374145507812 325 554.5374145507812 325H538.5374145507812V335H819.5337524414062V325H804.5337524414062Q752.5337524414062 325 754.5337524414062 280Z"/>
<path transform="translate(499.39 436) scale(0.1 -0.1)" d="M268.7828369140625 700V0H118.7864990234375V700ZM532.711669921875 43.142333984375 556.996337890625 0H265.7828369140625V43.142333984375ZM495.7828369140625 366.0711669921875V323.9288330078125H265.7828369140625V366.0711669921875ZM544.85400390625 700V656.857666015625H265.7828369140625V700ZM605.85400390625 204.4981689453125 559.996337890625 0H363.6405029296875L399.6405029296875 43.142333984375Q449.60491943359375 43.142333984375 487.96185302734375 62.67791748046875Q526.3187866210938 82.2135009765625 553.3899536132812 118.58822631835938Q580.4611206054688 154.96295166015625 596.0875103290265 204.4981689453125ZM495.7828369140625 325.9288330078125V229.572998046875H485.7828369140625V238.5018310546875Q485.7828369140625 274.89398193359375 461.7654113769531 299.10784912109375Q437.74798583984375 323.32171630859375 401.3558349609375 323.9288330078125V325.9288330078125ZM495.7828369140625 460.427001953125V364.0711669921875H401.3558349609375V366.0711669921875Q437.74798583984375 367.0711669921875 462.0689697265625 391.5885925292969Q486.38995361328125 416.10601806640625 485.7828369140625 452.4981689453125V460.427001953125ZM544.85400390625 659.857666015625V543.4306640625H534.85400390625V555.3594970703125Q534.85400390625 601.2156982421875 507.53302001953125 629.0366821289062Q480.2120361328125 656.857666015625 433.3558349609375 657.857666015625V659.857666015625ZM544.85400390625 718V689L422.85400390625 700Q444.85400390625 700 469.35400390625 703.0Q493.85400390625 706 514.85400390625 710.0Q535.85400390625 714 544.85400390625 718ZM121.7864990234375 73V0H41.7864990234375V10Q41.7864990234375 10 48.2864990234375 10.0Q54.7864990234375 10 54.7864990234375 10Q80.7864990234375 10 99.2864990234375 28.5Q117.7864990234375 47 118.7864990234375 73ZM121.7864990234375 627H118.7864990234375Q118.17938232421875 653 99.35962009429932 671.5Q80.53985786437988 690 54.7864990234375 690Q54.7864990234375 690 48.482940673828125 690.0Q42.17938232421875 690 42.17938232421875 690L41.7864990234375 700H121.7864990234375Z"/>
<path transform="translate(589.64 436) scale(0.1 -0.1)" d="M277.10601806640625 714Q296.74871826171875 714 326.4803771972656 712.0Q356.2120361328125 710 387.3721618652344 706.5Q418.53228759765625 703 442.4425964355469 699.5Q466.3529052734375 696 474.96002197265625 692L462.81768798828125 556.71533203125H453.2105712890625Q453.2105712890625 608.9651489257812 414.4429626464844 640.4114074707031Q375.67535400390625 671.857666015625 312.283203125 671.857666015625Q253.6405029296875 671.857666015625 218.42626953125 644.0359497070312Q183.2120361328125 616.2142333984375 181.39068603515625 575.6782836914062Q179.5693359375 546.3572998046875 199.60455322265625 524.1964416503906Q219.6397705078125 502.03558349609375 251.139404296875 483.0711669921875L442.0682373046875 358.74725341796875Q487.853271484375 332.568603515625 511.2098388671875 290.854736328125Q534.56640625 249.140869140625 531.5308227539062 193.03485107421875Q527.281005859375 95.46405029296875 457.353271484375 40.732025146484375Q387.425537109375 -14 267.427001953125 -14Q222.7850341796875 -14 181.48184204101562 -6.571533203125Q140.17864990234375 0.85693359375 107.8572998046875 14.5711669921875Q75.53594970703125 28.285400390625 56.75018310546875 47.0711669921875Q48.89324951171875 68.53521728515625 50.10748291015625 99.82061767578125Q51.32171630859375 131.10601806640625 59.875091552734375 163.070068359375Q68.428466796875 195.03411865234375 80.89251708984375 216.427001953125H89.89251708984375Q86.10675048828125 164.81988525390625 108.3565673828125 121.3558349609375Q130.60638427734375 77.89178466796875 174.51669311523438 52.624176025390625Q218.427001953125 27.3565673828125 278.2120361328125 28.142333984375Q343.53302001953125 29.32098388671875 379.9974365234375 61.481842041015625Q416.46185302734375 93.6427001953125 416.46185302734375 140.2861328125Q416.46185302734375 171.10748291015625 397.6586608886719 196.12527465820312Q378.85546875 221.14306640625 336.7850341796875 243.60711669921875L162.39141845703125 359.68121337890625Q108.7138671875 390.10968017578125 84.87509155273438 437.2698059082031Q61.03631591796875 484.429931640625 66.5003662109375 538.9288330078125Q70.75018310546875 590.6427001953125 96.82135009765625 630.2498168945312Q122.89251708984375 669.85693359375 168.46368408203125 691.928466796875Q214.03485107421875 714 277.10601806640625 714ZM476.17425537109375 704 474.3529052734375 683H356.46185302734375V704Z"/>
<path transform="translate(648.41 436) scale(0.1 -0.1)" d="M408.7828369140625 697V0H258.7864990234375V697ZM653.6405029296875 701V658.857666015625H13.9288330078125V701ZM653.6405029296875 661.857666015625V544.4306640625L643.6405029296875 545.4306640625V556.3594970703125Q643.6405029296875 602.6085815429688 616.1230773925781 630.2331237792969Q588.6056518554688 657.857666015625 542.142333984375 658.857666015625V661.857666015625ZM653.6405029296875 719V690L531.6405029296875 701Q553.6405029296875 701 578.1405029296875 704.0Q602.6405029296875 707 623.6405029296875 711.0Q644.6405029296875 715 653.6405029296875 719ZM261.7864990234375 73V0H181.7864990234375V10Q181.7864990234375 10 188.2864990234375 10.0Q194.7864990234375 10 194.7864990234375 10Q220.7864990234375 10 239.2864990234375 28.5Q257.7864990234375 47 258.7864990234375 73ZM405.7828369140625 73H408.7828369140625Q409.7828369140625 47 428.2828369140625 28.5Q446.7828369140625 10 472.7828369140625 10Q472.7828369140625 10 479.2828369140625 10.0Q485.7828369140625 10 485.7828369140625 10V0H405.7828369140625ZM125.427001953125 661.857666015625V658.857666015625Q78.57080078125 657.857666015625 51.24981689453125 630.2331237792969Q23.9288330078125 602.6085815429688 23.9288330078125 556.3594970703125V545.4306640625L13.9288330078125 544.4306640625V661.857666015625ZM13.9288330078125 719Q23.9288330078125 715 44.4288330078125 711.0Q64.9288330078125 707 89.9288330078125 704.0Q114.9288330078125 701 135.9288330078125 701L13.9288330078125 690Z"/>
<path transform="translate(716.05 436) scale(0.1 -0.1)" d="M256.85400390625 700V260Q256.85400390625 189.2142333984375 280.6219787597656 137.24981689453125Q304.38995361328125 85.285400390625 347.8365783691406 57.2138671875Q391.283203125 29.142333984375 450.6405029296875 29.142333984375Q512.1764526367188 29.142333984375 556.4088439941406 55.7138671875Q600.6412353515625 82.285400390625 624.99853515625 131.05337524414062Q649.3558349609375 179.82135009765625 649.3558349609375 247V700H720.6405029296875V253.0711669921875Q720.6405029296875 171.428466796875 686.2298278808594 111.41067504882812Q651.8191528320312 51.39288330078125 587.1764526367188 18.696441650390625Q522.5337524414062 -14 432.427001953125 -14Q325.74945068359375 -14 252.928466796875 18.5Q180.10748291015625 51 143.48257446289062 110.7142333984375Q106.857666015625 170.428466796875 106.857666015625 252.0711669921875V700ZM109.857666015625 700V640H106.857666015625Q106.857666015625 662 91.357666015625 676.0Q75.857666015625 690 53.857666015625 690Q53.857666015625 690 45.857666015625 690.0Q37.857666015625 690 37.857666015625 690V700ZM325.85400390625 700V690Q325.85400390625 690 317.85400390625 690.0Q309.85400390625 690 309.85400390625 690Q287.85400390625 690 272.35400390625 676.0Q256.85400390625 662 256.85400390625 640H254.85400390625V700ZM652.3558349609375 700V640H649.3558349609375Q649.3558349609375 662 633.8558349609375 676.0Q618.3558349609375 690 596.3558349609375 690Q596.3558349609375 690 588.3558349609375 690.0Q580.3558349609375 690 580.3558349609375 690V700ZM789.6405029296875 700V690Q789.6405029296875 690 781.6405029296875 690.0Q773.6405029296875 690 773.6405029296875 690Q751.6405029296875 690 736.1405029296875 676.0Q720.6405029296875 662 720.6405029296875 640H718.6405029296875V700Z"/>
<path transform="translate(799.02 436) scale(0.1 -0.1)" d="M405.0711669921875 700Q522.999267578125 700 608.9633178710938 657.7142333984375Q694.9273681640625 615.428466796875 741.6416015625 536.7320251464844Q788.3558349609375 458.03558349609375 788.3558349609375 350Q788.3558349609375 241.96441650390625 741.6416015625 163.46441650390625Q694.9273681640625 84.96441650390625 608.9633178710938 42.482208251953125Q522.999267578125 0 405.0711669921875 0H166.7864990234375L165.7864990234375 42.142333984375Q194.9281005859375 42.142333984375 226.44552612304688 42.142333984375Q257.96295166015625 42.142333984375 287.7309265136719 42.142333984375Q317.4989013671875 42.142333984375 341.3028259277344 42.142333984375Q365.10675048828125 42.142333984375 379.0177917480469 42.142333984375Q392.9288330078125 42.142333984375 392.9288330078125 42.142333984375Q464.96514892578125 42.142333984375 516.929931640625 79.7138671875Q568.8947143554688 117.285400390625 597.1093139648438 186.24981689453125Q625.3239135742188 255.2142333984375 625.3239135742188 350Q625.3239135742188 444.7857666015625 597.1093139648438 513.7501831054688Q568.8947143554688 582.714599609375 516.7334899902344 620.2861328125Q464.572265625 657.857666015625 392.9288330078125 657.857666015625Q392.9288330078125 657.857666015625 378.32135009765625 657.857666015625Q363.7138671875 657.857666015625 338.7135009765625 657.857666015625Q313.713134765625 657.857666015625 282.9451599121094 657.857666015625Q252.17718505859375 657.857666015625 219.15975952148438 657.857666015625Q186.142333984375 657.857666015625 155.7864990234375 657.857666015625V700ZM268.7828369140625 700V0H118.7864990234375V700ZM121.7864990234375 73V0H41.7864990234375V10Q41.7864990234375 10 48.2864990234375 10.0Q54.7864990234375 10 54.7864990234375 10Q80.7864990234375 10 99.2864990234375 28.5Q117.7864990234375 47 118.7864990234375 73ZM121.7864990234375 627H118.7864990234375Q118.7864990234375 653 99.7864990234375 671.5Q80.7864990234375 690 54.7864990234375 690Q54.7864990234375 690 48.7864990234375 690.0Q42.7864990234375 690 42.7864990234375 690L41.7864990234375 700H121.7864990234375Z"/>
<path transform="translate(882.7 436) scale(0.1 -0.1)" d="M268.7828369140625 700V0H118.7864990234375V700ZM121.7864990234375 73V0H41.7864990234375V10Q41.7864990234375 10 48.2864990234375 10.0Q54.7864990234375 10 54.7864990234375 10Q80.7864990234375 10 99.2864990234375 28.5Q117.7864990234375 47 118.7864990234375 73ZM121.7864990234375 627H118.7864990234375Q117.7864990234375 653 99.2864990234375 671.5Q80.7864990234375 690 54.7864990234375 690Q54.7864990234375 690 48.2864990234375 690.0Q41.7864990234375 690 41.7864990234375 690V700H121.7864990234375ZM265.7828369140625 73H268.7828369140625Q269.7828369140625 47 288.2828369140625 28.5Q306.7828369140625 10 332.7828369140625 10Q332.7828369140625 10 338.7828369140625 10.0Q344.7828369140625 10 345.7828369140625 10V0H265.7828369140625ZM265.7828369140625 627V700H345.7828369140625V690Q344.7828369140625 690 338.7828369140625 690.0Q332.7828369140625 690 332.7828369140625 690Q306.7828369140625 690 288.2828369140625 671.5Q269.7828369140625 653 268.7828369140625 627Z"/>
<path transform="translate(922.44 436) scale(0.1 -0.1)" d="M441.74945068359375 714Q562.1060180664062 714 650.6949768066406 669.7142333984375Q739.283935546875 625.428466796875 787.5159606933594 544.0355834960938Q835.7479858398438 462.6427001953125 835.7479858398438 350Q835.7479858398438 237.96441650390625 787.5159606933594 156.26797485351562Q739.283935546875 74.571533203125 650.6949768066406 30.2857666015625Q562.1060180664062 -14 441.74945068359375 -14Q321.7857666015625 -14 233.5003662109375 30.2857666015625Q145.2149658203125 74.571533203125 96.98294067382812 155.96441650390625Q48.75091552734375 237.3572998046875 48.75091552734375 350Q48.75091552734375 462.03558349609375 96.98294067382812 543.7320251464844Q145.2149658203125 625.428466796875 233.5003662109375 669.7142333984375Q321.7857666015625 714 441.74945068359375 714ZM441.74945068359375 28.142333984375Q512.7857666015625 28.142333984375 564.1434326171875 67.41030883789062Q615.5010986328125 106.67828369140625 643.4121398925781 178.6427001953125Q671.3231811523438 250.60711669921875 671.3231811523438 350Q671.3231811523438 449.39288330078125 643.4121398925781 521.3572998046875Q615.5010986328125 593.3217163085938 564.1434326171875 632.5896911621094Q512.7857666015625 671.857666015625 441.74945068359375 671.857666015625Q371.713134765625 671.857666015625 320.35546875 632.5896911621094Q268.997802734375 593.3217163085938 241.08676147460938 521.3572998046875Q213.17572021484375 449.39288330078125 213.17572021484375 350Q213.17572021484375 250.60711669921875 241.08676147460938 178.6427001953125Q268.997802734375 106.67828369140625 320.35546875 67.41030883789062Q371.713134765625 28.142333984375 441.74945068359375 28.142333984375Z"/></g>
<line x1="290" y1="470" x2="910" y2="470" stroke="#e6c76a" stroke-opacity=".55" stroke-width="1"/>
<g><path transform="translate(320 508) scale(0.02 -0.02)" d="M356 604V0H244V604H25V698H575V604Z" fill="#e6c76a"/>
<path transform="translate(341.2 508) scale(0.02 -0.02)" d="M416 307H184V0H72V698H184V401H416V698H528V0H416Z" fill="#e6c76a"/>
<path transform="translate(362.4 508) scale(0.02 -0.02)" d="M86 0V698H523V604H198V401H511V307H198V94H523V0Z" fill="#e6c76a"/>
<path transform="translate(426 508) scale(0.02 -0.02)" d="M86 0V698H535V604H198V401H504V307H198V0Z" fill="#e6c76a"/>
<path transform="translate(447.2 508) scale(0.02 -0.02)" d="M300 -12Q234 -12 185.5 12.5Q137 37 105.5 83.0Q74 129 59.0 196.0Q44 263 44 349Q44 434 59.0 501.5Q74 569 105.5 615.0Q137 661 185.5 685.5Q234 710 300 710Q366 710 414.5 685.5Q463 661 494.5 615.0Q526 569 541.0 501.5Q556 434 556 349Q556 263 541.0 196.0Q526 129 494.5 83.0Q463 37 414.5 12.5Q366 -12 300 -12ZM300 81Q375 81 406.0 137.5Q437 194 437 291V408Q437 504 406.0 560.5Q375 617 300 617Q225 617 194.0 560.5Q163 504 163 408V290Q163 194 194.0 137.5Q225 81 300 81Z" fill="#e6c76a"/>
<path transform="translate(468.4 508) scale(0.02 -0.02)" d="M195 0H84V698H345Q445 698 497.5 642.0Q550 586 550 488Q550 408 511.0 356.0Q472 304 399 292L560 0H436L288 282H195ZM329 372Q433 372 433 467V510Q433 605 329 605H195V372Z" fill="#e6c76a"/>
<path transform="translate(489.6 508) scale(0.02 -0.02)" d="M430 96H423Q414 75 401.5 55.5Q389 36 370.5 21.0Q352 6 326.0 -3.0Q300 -12 266 -12Q157 -12 102.0 81.0Q47 174 47 344Q47 522 110.0 616.0Q173 710 303 710Q354 710 392.5 696.0Q431 682 458.0 658.5Q485 635 503.0 603.5Q521 572 532 537L431 503Q423 526 413.0 546.5Q403 567 388.5 583.0Q374 599 353.5 608.0Q333 617 304 617Q231 617 198.5 560.5Q166 504 166 408V297Q166 249 173.0 209.0Q180 169 196.5 140.5Q213 112 239.5 96.0Q266 80 304 80Q365 80 397.5 116.5Q430 153 430 210V273H295V357H532V0H430Z" fill="#e6c76a"/>
<path transform="translate(510.8 508) scale(0.02 -0.02)" d="M86 0V698H523V604H198V401H511V307H198V94H523V0Z" fill="#e6c76a"/>
<path transform="translate(574.4 508) scale(0.02 -0.02)" d="M80 0V85H244V613H80V698H520V613H356V85H520V0Z" fill="#e6c76a"/>
<path transform="translate(595.6 508) scale(0.02 -0.02)" d="M294 -12Q203 -12 141.0 20.0Q79 52 39 105L111 174Q151 126 196.0 103.5Q241 81 298 81Q364 81 399.5 111.0Q435 141 435 197Q435 242 409.0 266.5Q383 291 320 302L244 314Q194 322 160.0 340.5Q126 359 105.0 384.5Q84 410 74.5 441.5Q65 473 65 508Q65 607 129.0 658.5Q193 710 305 710Q388 710 446.5 683.5Q505 657 541 609L471 539Q442 574 402.5 595.5Q363 617 305 617Q243 617 210.5 590.5Q178 564 178 513Q178 470 203.5 445.5Q229 421 294 410L368 397Q462 380 505.0 328.5Q548 277 548 203Q548 155 531.5 115.0Q515 75 482.5 47.0Q450 19 402.5 3.5Q355 -12 294 -12Z" fill="#e6c76a"/>
<path transform="translate(659.2 508) scale(0.02 -0.02)" d="M179 537H170V0H72V698H216L421 161H430V698H528V0H384Z" fill="#e6c76a"/>
<path transform="translate(680.4 508) scale(0.02 -0.02)" d="M300 -12Q234 -12 185.5 12.5Q137 37 105.5 83.0Q74 129 59.0 196.0Q44 263 44 349Q44 434 59.0 501.5Q74 569 105.5 615.0Q137 661 185.5 685.5Q234 710 300 710Q366 710 414.5 685.5Q463 661 494.5 615.0Q526 569 541.0 501.5Q556 434 556 349Q556 263 541.0 196.0Q526 129 494.5 83.0Q463 37 414.5 12.5Q366 -12 300 -12ZM300 81Q375 81 406.0 137.5Q437 194 437 291V408Q437 504 406.0 560.5Q375 617 300 617Q225 617 194.0 560.5Q163 504 163 408V290Q163 194 194.0 137.5Q225 81 300 81Z" fill="#e6c76a"/>
<path transform="translate(701.6 508) scale(0.02 -0.02)" d="M356 604V0H244V604H25V698H575V604Z" fill="#e6c76a"/>
<path transform="translate(765.2 508) scale(0.02 -0.02)" d="M80 0V85H244V613H80V698H520V613H356V85H520V0Z" fill="#e6c76a"/>
<path transform="translate(786.4 508) scale(0.02 -0.02)" d="M82 698H290Q424 698 488.5 609.0Q553 520 553 349Q553 178 488.5 89.0Q424 0 290 0H82ZM283 92Q360 92 397.5 143.5Q435 195 435 291V407Q435 503 397.5 554.5Q360 606 283 606H193V92Z" fill="#e6c76a"/>
<path transform="translate(807.6 508) scale(0.02 -0.02)" d="M108 0V698H220V94H538V0Z" fill="#e6c76a"/>
<path transform="translate(828.8 508) scale(0.02 -0.02)" d="M86 0V698H523V604H198V401H511V307H198V94H523V0Z" fill="#e6c76a"/></g>
<g><path transform="translate(365 580) scale(0.02 -0.02)" d="M570 -56Q570 -136 503.0 -174.0Q436 -212 299 -212Q232 -212 186.5 -203.5Q141 -195 112.5 -179.0Q84 -163 71.5 -140.0Q59 -117 59 -88Q59 -46 82.5 -22.5Q106 1 149 12V22Q123 32 107.5 50.0Q92 68 92 97Q92 135 118.0 154.5Q144 174 185 184V189Q138 211 112.0 251.0Q86 291 86 347Q86 388 101.0 421.5Q116 455 143.5 478.5Q171 502 209.5 515.0Q248 528 296 528Q350 528 393 511V528Q393 558 410.0 578.0Q427 598 462 598H556V512H436V488Q470 465 488.0 429.5Q506 394 506 347Q506 306 491.0 272.5Q476 239 448.5 215.5Q421 192 382.5 179.5Q344 167 296 167Q262 167 232 173Q214 168 196.0 156.0Q178 144 178 123Q178 99 201.0 93.0Q224 87 258 87H374Q478 87 524.0 47.5Q570 8 570 -56ZM468 -63Q468 -37 447.0 -21.5Q426 -6 371 -6H192Q154 -24 154 -64Q154 -93 178.5 -114.0Q203 -135 260 -135H341Q403 -135 435.5 -116.5Q468 -98 468 -63ZM296 242Q349 242 374.0 267.0Q399 292 399 334V361Q399 403 374.0 428.0Q349 453 296 453Q243 453 218.0 428.0Q193 403 193 361V334Q193 292 218.0 267.0Q243 242 296 242Z" fill="#e8ddcf" opacity=".72"/>
<path transform="translate(378.4 580) scale(0.02 -0.02)" d="M332 610Q290 610 273.5 627.0Q257 644 257 669V690Q257 715 273.5 732.0Q290 749 331 749Q373 749 389.5 732.0Q406 715 406 690V669Q406 644 389.5 627.0Q373 610 332 610ZM101 88H277V428H101V516H386V88H551V0H101Z" fill="#e8ddcf" opacity=".72"/>
<path transform="translate(391.8 580) scale(0.02 -0.02)" d="M331 0Q263 0 231.0 36.5Q199 73 199 131V428H40V516H153Q182 516 194.0 527.5Q206 539 206 569V698H308V516H528V428H308V88H528V0Z" fill="#e8ddcf" opacity=".72"/>
<path transform="translate(405.2 580) scale(0.02 -0.02)" d="M84 740H193V428H198Q206 448 218.5 466.5Q231 485 249.0 498.5Q267 512 291.0 520.0Q315 528 347 528Q425 528 473.0 477.0Q521 426 521 332V0H412V316Q412 439 305 439Q284 439 264.0 433.5Q244 428 228.0 417.0Q212 406 202.5 389.0Q193 372 193 350V0H84Z" fill="#e8ddcf" opacity=".72"/>
<path transform="translate(418.6 580) scale(0.02 -0.02)" d="M407 88H402Q394 68 381.5 49.5Q369 31 351.0 17.5Q333 4 309.0 -4.0Q285 -12 253 -12Q175 -12 127.0 39.0Q79 90 79 184V516H188V200Q188 77 295 77Q316 77 336.0 82.5Q356 88 372.0 99.0Q388 110 397.5 126.5Q407 143 407 166V516H516V0H407Z" fill="#e8ddcf" opacity=".72"/>
<path transform="translate(432 580) scale(0.02 -0.02)" d="M79 740H188V428H194Q217 475 255.0 501.5Q293 528 350 528Q441 528 495.0 460.0Q549 392 549 258Q549 124 495.0 56.0Q441 -12 350 -12Q293 -12 255.0 14.5Q217 41 194 88H188V0H79ZM305 77Q367 77 400.5 115.0Q434 153 434 216V300Q434 363 400.5 401.0Q367 439 305 439Q281 439 260.0 433.0Q239 427 223.0 415.0Q207 403 197.5 385.5Q188 368 188 344V172Q188 148 197.5 130.5Q207 113 223.0 101.0Q239 89 260.0 83.0Q281 77 305 77Z" fill="#e8ddcf" opacity=".72"/>
<path transform="translate(445.4 580) scale(0.02 -0.02)" d="M300 -10Q252 -10 232.5 10.0Q213 30 213 59V85Q213 114 232.5 134.0Q252 154 300 154Q348 154 367.5 134.0Q387 114 387 85V59Q387 30 367.5 10.0Q348 -10 300 -10Z" fill="#e8ddcf" opacity=".72"/>
<path transform="translate(458.8 580) scale(0.02 -0.02)" d="M319 -12Q261 -12 215.5 7.0Q170 26 138.5 61.0Q107 96 90.5 146.0Q74 196 74 258Q74 320 90.5 370.0Q107 420 138.5 455.0Q170 490 215.5 509.0Q261 528 318 528Q398 528 446.5 494.0Q495 460 519 406L434 360Q420 396 391.5 417.0Q363 438 318 438Q256 438 222.0 400.5Q188 363 188 301V215Q188 154 222.0 116.0Q256 78 320 78Q368 78 398.5 100.0Q429 122 447 160L527 111Q502 57 451.0 22.5Q400 -12 319 -12Z" fill="#e8ddcf" opacity=".72"/>
<path transform="translate(472.2 580) scale(0.02 -0.02)" d="M300 -12Q243 -12 197.5 7.0Q152 26 120.5 61.0Q89 96 72.0 146.0Q55 196 55 258Q55 320 72.0 370.0Q89 420 120.5 455.0Q152 490 197.5 509.0Q243 528 300 528Q357 528 402.5 509.0Q448 490 479.5 455.0Q511 420 528.0 370.0Q545 320 545 258Q545 196 528.0 146.0Q511 96 479.5 61.0Q448 26 402.5 7.0Q357 -12 300 -12ZM300 74Q360 74 395.5 110.5Q431 147 431 219V297Q431 369 395.5 405.5Q360 442 300 442Q240 442 204.5 405.5Q169 369 169 297V219Q169 147 204.5 110.5Q240 74 300 74Z" fill="#e8ddcf" opacity=".72"/>
<path transform="translate(485.6 580) scale(0.02 -0.02)" d="M44 0V516H137V449H142Q154 482 176.5 505.0Q199 528 241 528Q282 528 304.5 505.5Q327 483 333 444H337Q351 479 376.0 503.5Q401 528 448 528Q508 528 531.5 486.0Q555 444 555 363V0H462V349Q462 403 449.0 423.5Q436 444 407 444Q381 444 363.5 426.5Q346 409 346 374V0H253V349Q253 403 240.5 423.5Q228 444 199 444Q172 444 154.5 426.5Q137 409 137 374V0Z" fill="#e8ddcf" opacity=".72"/>
<path transform="translate(499 580) scale(0.02 -0.02)" d="M83 -138 420 760H517L180 -138Z" fill="#e8ddcf" opacity=".72"/>
<path transform="translate(512.4 580) scale(0.02 -0.02)" d="M412 88H406Q383 41 345.0 14.5Q307 -12 250 -12Q159 -12 105.0 56.0Q51 124 51 258Q51 392 105.0 460.0Q159 528 250 528Q307 528 345.0 501.5Q383 475 406 428H412V740H521V0H412ZM295 77Q319 77 340.0 83.0Q361 89 377.0 101.0Q393 113 402.5 130.5Q412 148 412 172V344Q412 368 402.5 385.5Q393 403 377.0 415.0Q361 427 340.0 433.0Q319 439 295 439Q233 439 199.5 401.0Q166 363 166 300V216Q166 153 199.5 115.0Q233 77 295 77Z" fill="#e8ddcf" opacity=".72"/>
<path transform="translate(525.8 580) scale(0.02 -0.02)" d="M84 0V516H193V428H198Q206 448 218.5 466.5Q231 485 249.0 498.5Q267 512 291.0 520.0Q315 528 347 528Q425 528 473.0 477.0Q521 426 521 332V0H412V316Q412 439 305 439Q284 439 264.0 433.5Q244 428 228.0 417.0Q212 406 202.5 389.0Q193 372 193 350V0Z" fill="#e8ddcf" opacity=".72"/>
<path transform="translate(539.2 580) scale(0.02 -0.02)" d="M84 740H193V428H198Q206 448 218.5 466.5Q231 485 249.0 498.5Q267 512 291.0 520.0Q315 528 347 528Q425 528 473.0 477.0Q521 426 521 332V0H412V316Q412 439 305 439Q284 439 264.0 433.5Q244 428 228.0 417.0Q212 406 202.5 389.0Q193 372 193 350V0H84Z" fill="#e8ddcf" opacity=".72"/>
<path transform="translate(552.6 580) scale(0.02 -0.02)" d="M271 410Q338 410 370.5 438.5Q403 467 403 510V517Q403 565 371.5 590.5Q340 616 287 616Q236 616 200.5 593.0Q165 570 141 530L65 595Q81 618 102.0 639.0Q123 660 150.0 675.5Q177 691 212.0 700.5Q247 710 291 710Q340 710 382.0 698.0Q424 686 455.0 662.5Q486 639 503.0 605.5Q520 572 520 530Q520 497 509.5 470.0Q499 443 480.5 422.5Q462 402 437.0 389.0Q412 376 384 370V365Q414 359 441.0 345.5Q468 332 489.0 310.5Q510 289 522.0 259.5Q534 230 534 192Q534 146 516.0 108.5Q498 71 464.5 44.0Q431 17 384.0 2.5Q337 -12 279 -12Q230 -12 192.5 -1.5Q155 9 126.0 26.5Q97 44 75.5 66.5Q54 89 38 113L121 177Q147 135 182.5 108.5Q218 82 280 82Q346 82 381.0 112.5Q416 143 416 197V205Q416 259 379.5 287.5Q343 316 274 316H199V410Z" fill="#e8ddcf" opacity=".72"/>
<path transform="translate(566 580) scale(0.02 -0.02)" d="M271 410Q338 410 370.5 438.5Q403 467 403 510V517Q403 565 371.5 590.5Q340 616 287 616Q236 616 200.5 593.0Q165 570 141 530L65 595Q81 618 102.0 639.0Q123 660 150.0 675.5Q177 691 212.0 700.5Q247 710 291 710Q340 710 382.0 698.0Q424 686 455.0 662.5Q486 639 503.0 605.5Q520 572 520 530Q520 497 509.5 470.0Q499 443 480.5 422.5Q462 402 437.0 389.0Q412 376 384 370V365Q414 359 441.0 345.5Q468 332 489.0 310.5Q510 289 522.0 259.5Q534 230 534 192Q534 146 516.0 108.5Q498 71 464.5 44.0Q431 17 384.0 2.5Q337 -12 279 -12Q230 -12 192.5 -1.5Q155 9 126.0 26.5Q97 44 75.5 66.5Q54 89 38 113L121 177Q147 135 182.5 108.5Q218 82 280 82Q346 82 381.0 112.5Q416 143 416 197V205Q416 259 379.5 287.5Q343 316 274 316H199V410Z" fill="#e8ddcf" opacity=".72"/>
<path transform="translate(579.4 580) scale(0.02 -0.02)" d="M83 -138 420 760H517L180 -138Z" fill="#e8ddcf" opacity=".72"/>
<path transform="translate(592.8 580) scale(0.02 -0.02)" d="M78 88H243V428H68V516H243V609Q243 667 275.0 703.5Q307 740 375 740H549V652H352V516H549V428H352V88H526V0H78Z" fill="#e8ddcf" opacity=".72"/>
<path transform="translate(606.2 580) scale(0.02 -0.02)" d="M300 -12Q243 -12 197.5 7.0Q152 26 120.5 61.0Q89 96 72.0 146.0Q55 196 55 258Q55 320 72.0 370.0Q89 420 120.5 455.0Q152 490 197.5 509.0Q243 528 300 528Q357 528 402.5 509.0Q448 490 479.5 455.0Q511 420 528.0 370.0Q545 320 545 258Q545 196 528.0 146.0Q511 96 479.5 61.0Q448 26 402.5 7.0Q357 -12 300 -12ZM300 74Q360 74 395.5 110.5Q431 147 431 219V297Q431 369 395.5 405.5Q360 442 300 442Q240 442 204.5 405.5Q169 369 169 297V219Q169 147 204.5 110.5Q240 74 300 74Z" fill="#e8ddcf" opacity=".72"/>
<path transform="translate(619.6 580) scale(0.02 -0.02)" d="M76 88H213V428H76V516H322V379H328Q335 406 348.0 431.0Q361 456 381.0 474.5Q401 493 430.0 504.5Q459 516 498 516H560V412H458Q398 412 360.0 376.5Q322 341 322 281V88H509V0H76Z" fill="#e8ddcf" opacity=".72"/>
<path transform="translate(633 580) scale(0.02 -0.02)" d="M570 -56Q570 -136 503.0 -174.0Q436 -212 299 -212Q232 -212 186.5 -203.5Q141 -195 112.5 -179.0Q84 -163 71.5 -140.0Q59 -117 59 -88Q59 -46 82.5 -22.5Q106 1 149 12V22Q123 32 107.5 50.0Q92 68 92 97Q92 135 118.0 154.5Q144 174 185 184V189Q138 211 112.0 251.0Q86 291 86 347Q86 388 101.0 421.5Q116 455 143.5 478.5Q171 502 209.5 515.0Q248 528 296 528Q350 528 393 511V528Q393 558 410.0 578.0Q427 598 462 598H556V512H436V488Q470 465 488.0 429.5Q506 394 506 347Q506 306 491.0 272.5Q476 239 448.5 215.5Q421 192 382.5 179.5Q344 167 296 167Q262 167 232 173Q214 168 196.0 156.0Q178 144 178 123Q178 99 201.0 93.0Q224 87 258 87H374Q478 87 524.0 47.5Q570 8 570 -56ZM468 -63Q468 -37 447.0 -21.5Q426 -6 371 -6H192Q154 -24 154 -64Q154 -93 178.5 -114.0Q203 -135 260 -135H341Q403 -135 435.5 -116.5Q468 -98 468 -63ZM296 242Q349 242 374.0 267.0Q399 292 399 334V361Q399 403 374.0 428.0Q349 453 296 453Q243 453 218.0 428.0Q193 403 193 361V334Q193 292 218.0 267.0Q243 242 296 242Z" fill="#e8ddcf" opacity=".72"/>
<path transform="translate(646.4 580) scale(0.02 -0.02)" d="M311 -12Q252 -12 205.0 7.0Q158 26 126.0 61.0Q94 96 77.0 145.5Q60 195 60 257Q60 319 77.5 369.0Q95 419 126.5 454.5Q158 490 203.0 509.0Q248 528 303 528Q357 528 401.0 509.5Q445 491 476.0 457.0Q507 423 523.5 376.0Q540 329 540 272V231H170V214Q170 153 208.0 114.5Q246 76 313 76Q363 76 398.5 97.5Q434 119 456 155L524 95Q498 50 444.5 19.0Q391 -12 311 -12ZM303 445Q274 445 249.5 435.0Q225 425 207.5 406.5Q190 388 180.0 363.0Q170 338 170 308V301H429V311Q429 372 394.5 408.5Q360 445 303 445Z" fill="#e8ddcf" opacity=".72"/>
<path transform="translate(659.8 580) scale(0.02 -0.02)" d="M149 250V359H451V250Z" fill="#e8ddcf" opacity=".72"/>
<path transform="translate(673.2 580) scale(0.02 -0.02)" d="M301 -12Q217 -12 156.5 15.0Q96 42 59 87L126 147Q160 110 202.5 90.5Q245 71 303 71Q356 71 388.5 89.0Q421 107 421 145Q421 161 415.0 172.0Q409 183 398.0 190.0Q387 197 372.5 201.0Q358 205 342 207L260 220Q230 224 199.0 233.0Q168 242 143.5 258.5Q119 275 103.5 301.0Q88 327 88 367Q88 446 148.5 487.0Q209 528 308 528Q380 528 432.5 506.5Q485 485 520 447L459 383Q439 406 402.0 425.5Q365 445 304 445Q195 445 195 376Q195 343 218.5 330.5Q242 318 274 314L356 301Q387 296 417.5 288.0Q448 280 472.5 263.5Q497 247 512.5 221.0Q528 195 528 155Q528 77 467.5 32.5Q407 -12 301 -12Z" fill="#e8ddcf" opacity=".72"/>
<path transform="translate(686.6 580) scale(0.02 -0.02)" d="M331 0Q263 0 231.0 36.5Q199 73 199 131V428H40V516H153Q182 516 194.0 527.5Q206 539 206 569V698H308V516H528V428H308V88H528V0Z" fill="#e8ddcf" opacity=".72"/>
<path transform="translate(700 580) scale(0.02 -0.02)" d="M407 88H402Q394 68 381.5 49.5Q369 31 351.0 17.5Q333 4 309.0 -4.0Q285 -12 253 -12Q175 -12 127.0 39.0Q79 90 79 184V516H188V200Q188 77 295 77Q316 77 336.0 82.5Q356 88 372.0 99.0Q388 110 397.5 126.5Q407 143 407 166V516H516V0H407Z" fill="#e8ddcf" opacity=".72"/>
<path transform="translate(713.4 580) scale(0.02 -0.02)" d="M412 88H406Q383 41 345.0 14.5Q307 -12 250 -12Q159 -12 105.0 56.0Q51 124 51 258Q51 392 105.0 460.0Q159 528 250 528Q307 528 345.0 501.5Q383 475 406 428H412V740H521V0H412ZM295 77Q319 77 340.0 83.0Q361 89 377.0 101.0Q393 113 402.5 130.5Q412 148 412 172V344Q412 368 402.5 385.5Q393 403 377.0 415.0Q361 427 340.0 433.0Q319 439 295 439Q233 439 199.5 401.0Q166 363 166 300V216Q166 153 199.5 115.0Q233 77 295 77Z" fill="#e8ddcf" opacity=".72"/>
<path transform="translate(726.8 580) scale(0.02 -0.02)" d="M332 610Q290 610 273.5 627.0Q257 644 257 669V690Q257 715 273.5 732.0Q290 749 331 749Q373 749 389.5 732.0Q406 715 406 690V669Q406 644 389.5 627.0Q373 610 332 610ZM101 88H277V428H101V516H386V88H551V0H101Z" fill="#e8ddcf" opacity=".72"/>
<path transform="translate(740.2 580) scale(0.02 -0.02)" d="M300 -12Q243 -12 197.5 7.0Q152 26 120.5 61.0Q89 96 72.0 146.0Q55 196 55 258Q55 320 72.0 370.0Q89 420 120.5 455.0Q152 490 197.5 509.0Q243 528 300 528Q357 528 402.5 509.0Q448 490 479.5 455.0Q511 420 528.0 370.0Q545 320 545 258Q545 196 528.0 146.0Q511 96 479.5 61.0Q448 26 402.5 7.0Q357 -12 300 -12ZM300 74Q360 74 395.5 110.5Q431 147 431 219V297Q431 369 395.5 405.5Q360 442 300 442Q240 442 204.5 405.5Q169 369 169 297V219Q169 147 204.5 110.5Q240 74 300 74Z" fill="#e8ddcf" opacity=".72"/></g>
</svg>
